{
  "accessors": [
    {
      "bufferView": 2,
      "componentType": 5126,
      "count": 551,
      "max": [
        1.5252643823623657,
        0.15216317772865295,
        0.4826319217681885
      ],
      "min": [
        -1.5560137033462524,
        -0.15216317772865295,
        -0.2378893792629242
      ],
      "type": "VEC3"
    },
    {
      "bufferView": 2,
      "byteOffset": 6612,
      "componentType": 5126,
      "count": 551,
      "max": [
        1,
        1,
        0.999985933303833
      ],
      "min": [
        -0.9999898672103882,
        -1,
        -0.9998080730438232
      ],
      "type": "VEC3"
    },
    {
      "bufferView": 1,
      "componentType": 5126,
      "count": 551,
      "max": [
        0.8445415496826172,
        0.6944008469581604
      ],
      "min": [
        0.002189852064475417,
        0.0021898732520639896
      ],
      "type": "VEC2"
    },
    {
      "bufferView": 0,
      "componentType": 5125,
      "count": 1854,
      "type": "SCALAR"
    },
    {
      "bufferView": 2,
      "byteOffset": 13224,
      "componentType": 5126,
      "count": 317,
      "max": [
        1.3605563640594482,
        0.08445680141448975,
        0.09975534677505493
      ],
      "min": [
        0.13327132165431976,
        -0.08445680141448975,
        -0.9333744645118713
      ],
      "type": "VEC3"
    },
    {
      "bufferView": 2,
      "byteOffset": 17028,
      "componentType": 5126,
      "count": 317,
      "max": [
        0.966374397277832,
        1,
        0.9907846450805664
      ],
      "min": [
        -0.9917617440223694,
        -1,
        -0.9999915957450867
      ],
      "type": "VEC3"
    },
    {
      "bufferView": 1,
      "byteOffset": 4408,
      "componentType": 5126,
      "count": 317,
      "max": [
        0.8257738947868347,
        0.7491394877433777
      ],
      "min": [
        0.002683795988559723,
        0.3478968143463135
      ],
      "type": "VEC2"
    },
    {
      "bufferView": 0,
      "byteOffset": 7416,
      "componentType": 5125,
      "count": 1086,
      "type": "SCALAR"
    },
    {
      "bufferView": 2,
      "byteOffset": 20832,
      "componentType": 5126,
      "count": 560,
      "max": [
        0.6348624229431152,
        0.11311282962560654,
        0.16665607690811157
      ],
      "min": [
        -1.1144379377365112,
        -0.11311282962560654,
        -0.6888263821601868
      ],
      "type": "VEC3"
    },
    {
      "bufferView": 2,
      "byteOffset": 27552,
      "componentType": 5126,
      "count": 560,
      "max": [
        1,
        0.9999971389770508,
        0.9993057250976562
      ],
      "min": [
        -1,
        -0.9999971389770508,
        -0.9901487231254578
      ],
      "type": "VEC3"
    },
    {
      "bufferView": 1,
      "byteOffset": 6944,
      "componentType": 5126,
      "count": 560,
      "max": [
        0.8539252281188965,
        0.7065865993499756
      ],
      "min": [
        0.00282482011243701,
        0.12394005805253983
      ],
      "type": "VEC2"
    },
    {
      "bufferView": 0,
      "byteOffset": 11760,
      "componentType": 5125,
      "count": 1938,
      "type": "SCALAR"
    },
    {
      "bufferView": 2,
      "byteOffset": 34272,
      "componentType": 5126,
      "count": 96,
      "max": [
        0.11962472647428513,
        0.1266418993473053,
        0.028019536286592484
      ],
      "min": [
        -0.06571999937295914,
        -0.06571999937295914,
        -0.01733429729938507
      ],
      "type": "VEC3"
    },
    {
      "bufferView": 2,
      "byteOffset": 35424,
      "componentType": 5126,
      "count": 96,
      "max": [
        0.9797506332397461,
        0.960192084312439,
        0.9998751282691956
      ],
      "min": [
        -0.9238795638084412,
        -0.9238795042037964,
        0
      ],
      "type": "VEC3"
    },
    {
      "bufferView": 1,
      "byteOffset": 11424,
      "componentType": 5126,
      "count": 96,
      "max": [
        0.41601482033729553,
        0.6068187355995178
      ],
      "min": [
        0.18601766228675842,
        0.493421345949173
      ],
      "type": "VEC2"
    },
    {
      "bufferView": 0,
      "byteOffset": 19512,
      "componentType": 5125,
      "count": 186,
      "type": "SCALAR"
    },
    {
      "bufferView": 2,
      "byteOffset": 36576,
      "componentType": 5126,
      "count": 166,
      "max": [
        0.11747691035270691,
        0.04846823960542679,
        0.04601868987083435
      ],
      "min": [
        -0.48123812675476074,
        -0.04846815764904022,
        -1.1015821695327759
      ],
      "type": "VEC3"
    },
    {
      "bufferView": 2,
      "byteOffset": 38568,
      "componentType": 5126,
      "count": 166,
      "max": [
        0.9937277436256409,
        1,
        0.9311001896858215
      ],
      "min": [
        -0.9869992136955261,
        -1,
        -0.885845422744751
      ],
      "type": "VEC3"
    },
    {
      "bufferView": 1,
      "byteOffset": 12192,
      "componentType": 5126,
      "count": 166,
      "max": [
        0.791366696357727,
        0.8132622838020325
      ],
      "min": [
        0.0034160767681896687,
        0.04808739200234413
      ],
      "type": "VEC2"
    },
    {
      "bufferView": 0,
      "byteOffset": 20256,
      "componentType": 5125,
      "count": 396,
      "type": "SCALAR"
    },
    {
      "bufferView": 2,
      "byteOffset": 40560,
      "componentType": 5126,
      "count": 118,
      "max": [
        -0.21949279308319092,
        0.19187524914741516,
        0.40004202723503113
      ],
      "min": [
        -1.5711334943771362,
        -0.19187520444393158,
        0.006883338093757629
      ],
      "type": "VEC3"
    },
    {
      "bufferView": 2,
      "byteOffset": 41976,
      "componentType": 5126,
      "count": 118,
      "max": [
        0.9999248385429382,
        0.9763692617416382,
        0.9999896883964539
      ],
      "min": [
        -0.9999247789382935,
        -0.9763692617416382,
        -0.9999896883964539
      ],
      "type": "VEC3"
    },
    {
      "bufferView": 1,
      "byteOffset": 13520,
      "componentType": 5126,
      "count": 118,
      "max": [
        0.8633090853691101,
        0.9978101849555969
      ],
      "min": [
        0.37381619215011597,
        0.127756729722023
      ],
      "type": "VEC2"
    },
    {
      "bufferView": 0,
      "byteOffset": 21840,
      "componentType": 5125,
      "count": 324,
      "type": "SCALAR"
    },
    {
      "bufferView": 2,
      "byteOffset": 43392,
      "componentType": 5126,
      "count": 130,
      "max": [
        0.0019981861114501953,
        0.15567347407341003,
        0.17139092087745667
      ],
      "min": [
        -1.0265579223632812,
        -0.15751296281814575,
        -0.159490168094635
      ],
      "type": "VEC3"
    },
    {
      "bufferView": 2,
      "byteOffset": 44952,
      "componentType": 5126,
      "count": 130,
      "max": [
        0.999919593334198,
        0.976020872592926,
        0.9999197125434875
      ],
      "min": [
        -0.9999196529388428,
        -0.9760208129882812,
        -0.9999197125434875
      ],
      "type": "VEC3"
    },
    {
      "bufferView": 1,
      "byteOffset": 14464,
      "componentType": 5126,
      "count": 130,
      "max": [
        0.9493271708488464,
        0.9540191292762756
      ],
      "min": [
        0.28417420387268066,
        0.12784022092819214
      ],
      "type": "VEC2"
    },
    {
      "bufferView": 0,
      "byteOffset": 23136,
      "componentType": 5125,
      "count": 372,
      "type": "SCALAR"
    },
    {
      "bufferView": 2,
      "byteOffset": 46512,
      "componentType": 5126,
      "count": 136,
      "max": [
        0.050504595041275024,
        0.027300041168928146,
        0.028727740049362183
      ],
      "min": [
        -0.03858359530568123,
        -0.16633354127407074,
        -0.02821102924644947
      ],
      "type": "VEC3"
    },
    {
      "bufferView": 2,
      "byteOffset": 48144,
      "componentType": 5126,
      "count": 136,
      "max": [
        1,
        0.9801360368728638,
        1
      ],
      "min": [
        -1,
        -0.9797475934028625,
        -1
      ],
      "type": "VEC3"
    },
    {
      "bufferView": 1,
      "byteOffset": 15504,
      "componentType": 5126,
      "count": 136,
      "max": [
        0.6068187355995178,
        0.6881449818611145
      ],
      "min": [
        0.0023531869519501925,
        0.00373530643992126
      ],
      "type": "VEC2"
    },
    {
      "bufferView": 0,
      "byteOffset": 24624,
      "componentType": 5125,
      "count": 372,
      "type": "SCALAR"
    },
    {
      "bufferView": 2,
      "byteOffset": 49776,
      "componentType": 5126,
      "count": 590,
      "max": [
        0.12499860674142838,
        0.057245802134275436,
        0.11426391452550888
      ],
      "min": [
        -0.13065795600414276,
        -0.057245802134275436,
        -0.09203904867172241
      ],
      "type": "VEC3"
    },
    {
      "bufferView": 2,
      "byteOffset": 56856,
      "componentType": 5126,
      "count": 590,
      "max": [
        1,
        1,
        0.9999714493751526
      ],
      "min": [
        -1,
        -1,
        -0.9807854294776917
      ],
      "type": "VEC3"
    },
    {
      "bufferView": 1,
      "byteOffset": 16592,
      "componentType": 5126,
      "count": 590,
      "max": [
        0.8601812124252319,
        0.8539252877235413
      ],
      "min": [
        0.002577142557129264,
        0.20594623684883118
      ],
      "type": "VEC2"
    },
    {
      "bufferView": 0,
      "byteOffset": 26112,
      "componentType": 5125,
      "count": 1701,
      "type": "SCALAR"
    },
    {
      "bufferView": 2,
      "byteOffset": 63936,
      "componentType": 5126,
      "count": 200,
      "max": [
        0.04791196808218956,
        0.08804906904697418,
        0.22237399220466614
      ],
      "min": [
        -0.06479915976524353,
        -0.08804906904697418,
        -0.008228320628404617
      ],
      "type": "VEC3"
    },
    {
      "bufferView": 2,
      "byteOffset": 66336,
      "componentType": 5126,
      "count": 200,
      "max": [
        1,
        0.9999989867210388,
        0.9999876618385315
      ],
      "min": [
        -0.999977171421051,
        -0.999998152256012,
        -0.9761244654655457
      ],
      "type": "VEC3"
    },
    {
      "bufferView": 1,
      "byteOffset": 21312,
      "componentType": 5126,
      "count": 200,
      "max": [
        0.5786673426628113,
        0.8601812124252319
      ],
      "min": [
        0.0036726014222949743,
        0.0030572651885449886
      ],
      "type": "VEC2"
    },
    {
      "bufferView": 0,
      "byteOffset": 32916,
      "componentType": 5125,
      "count": 570,
      "type": "SCALAR"
    },
    {
      "bufferView": 2,
      "byteOffset": 68736,
      "componentType": 5126,
      "count": 100,
      "max": [
        0.061381109058856964,
        0,
        0.012711609713733196
      ],
      "min": [
        -0.06138109415769577,
        -0.27744922041893005,
        -0.012711620889604092
      ],
      "type": "VEC3"
    },
    {
      "bufferView": 2,
      "byteOffset": 69936,
      "componentType": 5126,
      "count": 100,
      "max": [
        1,
        0.6172129511833191,
        1
      ],
      "min": [
        -1,
        -0.9035809636116028,
        -1
      ],
      "type": "VEC3"
    },
    {
      "bufferView": 1,
      "byteOffset": 22912,
      "componentType": 5126,
      "count": 100,
      "max": [
        0.3706599175930023,
        0.4848293364048004
      ],
      "min": [
        0.0033226681407541037,
        0.3888452351093292
      ],
      "type": "VEC2"
    },
    {
      "bufferView": 0,
      "byteOffset": 35196,
      "componentType": 5125,
      "count": 228,
      "type": "SCALAR"
    }
  ],
  "asset": {
    "extras": {
      "author": "Dmitry Narkevich (https://sketchfab.com/dmitrynar)",
      "license": "CC-BY-4.0 (http://creativecommons.org/licenses/by/4.0/)",
      "source": "https://sketchfab.com/3d-models/mp5-psx-df8406a42996405d8f968912f373e572",
      "title": "Mp5 Psx"
    },
    "generator": "Sketchfab-17.7.0",
    "version": "2.0"
  },
  "bufferViews": [
    {
      "buffer": 0,
      "byteLength": 36108,
      "name": "floatBufferViews",
      "target": 34963
    },
    {
      "buffer": 0,
      "byteLength": 23712,
      "byteOffset": 36108,
      "byteStride": 8,
      "name": "floatBufferViews",
      "target": 34962
    },
    {
      "buffer": 0,
      "byteLength": 71136,
      "byteOffset": 59820,
      "byteStride": 12,
      "name": "floatBufferViews",
      "target": 34962
    }
  ],
  "buffers": [
    {
      "byteLength": 130956,
      "uri": "scene.bin"
    }
  ],
  "materials": [
    {
      "name": "TouchGrass_MP5_Base",
      "doubleSided": true,
      "pbrMetallicRoughness": {
        "baseColorFactor": [
          1,
          1,
          1,
          1
        ],
        "metallicFactor": 0.14,
        "roughnessFactor": 0.42
      }
    }
  ],
  "meshes": [
    {
      "name": "MP5_weapon.001_0",
      "primitives": [
        {
          "attributes": {
            "NORMAL": 1,
            "POSITION": 0,
            "TEXCOORD_0": 2
          },
          "indices": 3,
          "material": 0,
          "mode": 4
        }
      ]
    },
    {
      "name": "body_weapon.001_0",
      "primitives": [
        {
          "attributes": {
            "NORMAL": 5,
            "POSITION": 4,
            "TEXCOORD_0": 6
          },
          "indices": 7,
          "material": 0,
          "mode": 4
        }
      ]
    },
    {
      "name": "butt_weapon.001_0",
      "primitives": [
        {
          "attributes": {
            "NORMAL": 9,
            "POSITION": 8,
            "TEXCOORD_0": 10
          },
          "indices": 11,
          "material": 0,
          "mode": 4
        }
      ]
    },
    {
      "name": "button_weapon.001_0",
      "primitives": [
        {
          "attributes": {
            "NORMAL": 13,
            "POSITION": 12,
            "TEXCOORD_0": 14
          },
          "indices": 15,
          "material": 0,
          "mode": 4
        }
      ]
    },
    {
      "name": "clip_weapon.001_0",
      "primitives": [
        {
          "attributes": {
            "NORMAL": 17,
            "POSITION": 16,
            "TEXCOORD_0": 18
          },
          "indices": 19,
          "material": 0,
          "mode": 4
        }
      ]
    },
    {
      "name": "handguard_weapon.001_0",
      "primitives": [
        {
          "attributes": {
            "NORMAL": 21,
            "POSITION": 20,
            "TEXCOORD_0": 22
          },
          "indices": 23,
          "material": 0,
          "mode": 4
        }
      ]
    },
    {
      "name": "muffler_weapon.001_0",
      "primitives": [
        {
          "attributes": {
            "NORMAL": 25,
            "POSITION": 24,
            "TEXCOORD_0": 26
          },
          "indices": 27,
          "material": 0,
          "mode": 4
        }
      ]
    },
    {
      "name": "shutter_weapon.001_0",
      "primitives": [
        {
          "attributes": {
            "NORMAL": 29,
            "POSITION": 28,
            "TEXCOORD_0": 30
          },
          "indices": 31,
          "material": 0,
          "mode": 4
        }
      ]
    },
    {
      "name": "sight_1_weapon.001_0",
      "primitives": [
        {
          "attributes": {
            "NORMAL": 33,
            "POSITION": 32,
            "TEXCOORD_0": 34
          },
          "indices": 35,
          "material": 0,
          "mode": 4
        }
      ]
    },
    {
      "name": "sight_2_weapon.001_0",
      "primitives": [
        {
          "attributes": {
            "NORMAL": 37,
            "POSITION": 36,
            "TEXCOORD_0": 38
          },
          "indices": 39,
          "material": 0,
          "mode": 4
        }
      ]
    },
    {
      "name": "trigger_weapon.001_0",
      "primitives": [
        {
          "attributes": {
            "NORMAL": 41,
            "POSITION": 40,
            "TEXCOORD_0": 42
          },
          "indices": 43,
          "material": 0,
          "mode": 4
        }
      ]
    }
  ],
  "nodes": [
    {
      "children": [
        1
      ],
      "matrix": [
        1,
        0,
        0,
        0,
        0,
        2.220446049250313e-16,
        -1,
        0,
        0,
        1,
        2.220446049250313e-16,
        0,
        0,
        0,
        0,
        1
      ],
      "name": "Sketchfab_model"
    },
    {
      "children": [
        2
      ],
      "matrix": [
        0.009999999776482582,
        0,
        0,
        0,
        0,
        0,
        0.009999999776482582,
        0,
        0,
        -0.009999999776482582,
        0,
        0,
        0,
        0,
        0,
        1
      ],
      "name": "da41d7f2e026494699c6f4ff336d0937.fbx"
    },
    {
      "children": [
        3
      ],
      "name": "RootNode"
    },
    {
      "children": [
        4,
        5,
        7,
        9,
        11,
        13,
        15,
        17,
        19,
        21,
        23
      ],
      "matrix": [
        100,
        0,
        0,
        0,
        0,
        -0.00001629206793918314,
        -99.99999999999868,
        0,
        0,
        99.99999999999868,
        -0.00001629206793918314,
        0,
        0,
        150,
        0.0000036612007079384057,
        1
      ],
      "name": "MP5"
    },
    {
      "mesh": 0,
      "name": "MP5_weapon.001_0"
    },
    {
      "children": [
        6
      ],
      "matrix": [
        1,
        0,
        0,
        0,
        0,
        1,
        -2.646977960169688e-23,
        0,
        0,
        2.646977960169688e-23,
        1,
        0,
        0,
        0,
        0,
        1
      ],
      "name": "body"
    },
    {
      "mesh": 1,
      "name": "body_weapon.001_0"
    },
    {
      "children": [
        8
      ],
      "matrix": [
        1,
        0,
        0,
        0,
        0,
        1,
        -2.646977960169688e-23,
        0,
        0,
        2.646977960169688e-23,
        1,
        0,
        1.5901355743408203,
        -7.450580596923828e-9,
        0.21897947788238525,
        1
      ],
      "name": "butt"
    },
    {
      "mesh": 2,
      "name": "butt_weapon.001_0"
    },
    {
      "children": [
        10
      ],
      "matrix": [
        1,
        0,
        0,
        0,
        0,
        -1.6292067939183141e-7,
        0.9999999999999868,
        0,
        0,
        -0.9999999999999868,
        -1.6292067939183141e-7,
        0,
        0.7124094367027283,
        -0.08447356522083282,
        -0.07139217853546143,
        1
      ],
      "name": "button"
    },
    {
      "mesh": 3,
      "name": "button_weapon.001_0"
    },
    {
      "children": [
        12
      ],
      "matrix": [
        1,
        0,
        0,
        0,
        0,
        1,
        -2.646977960169688e-23,
        0,
        0,
        2.646977960169688e-23,
        1,
        0,
        -0.010825857520103455,
        4.947040110891976e-9,
        -0.1480388641357422,
        1
      ],
      "name": "clip"
    },
    {
      "mesh": 4,
      "name": "clip_weapon.001_0"
    },
    {
      "children": [
        14
      ],
      "matrix": [
        1,
        0,
        0,
        0,
        0,
        1,
        -2.646977960169688e-23,
        0,
        0,
        2.646977960169688e-23,
        1,
        0,
        0,
        0,
        0,
        1
      ],
      "name": "handguard"
    },
    {
      "mesh": 5,
      "name": "handguard_weapon.001_0"
    },
    {
      "children": [
        16
      ],
      "matrix": [
        1,
        0,
        0,
        0,
        0,
        1,
        -2.646977960169688e-23,
        0,
        0,
        2.646977960169688e-23,
        1,
        0,
        -1.5688858032226562,
        -0.00004213633656036109,
        0.2037355899810791,
        1
      ],
      "name": "muffler"
    },
    {
      "mesh": 6,
      "name": "muffler_weapon.001_0"
    },
    {
      "children": [
        18
      ],
      "matrix": [
        1,
        0,
        0,
        0,
        0,
        0.8710870025590844,
        -0.4911287346232448,
        0,
        0,
        0.4911287346232448,
        0.8710870025590844,
        0,
        -0.9198137521743774,
        -0.07537730783224106,
        0.4203784465789795,
        1
      ],
      "name": "shutter"
    },
    {
      "mesh": 7,
      "name": "shutter_weapon.001_0"
    },
    {
      "children": [
        20
      ],
      "matrix": [
        1,
        0,
        0,
        0,
        0,
        1,
        -2.646977960169688e-23,
        0,
        0,
        2.646977960169688e-23,
        1,
        0,
        1.013492465019226,
        -0.0010405818466097116,
        0.5306878089904785,
        1
      ],
      "name": "sight_1"
    },
    {
      "mesh": 8,
      "name": "sight_1_weapon.001_0"
    },
    {
      "children": [
        22
      ],
      "matrix": [
        1,
        0,
        0,
        0,
        0,
        1,
        -2.646977960169688e-23,
        0,
        0,
        2.646977960169688e-23,
        1,
        0,
        -1.4545022249221802,
        -0.0010214722715318203,
        0.44855499267578125,
        1
      ],
      "name": "sight_2"
    },
    {
      "mesh": 9,
      "name": "sight_2_weapon.001_0"
    },
    {
      "children": [
        24
      ],
      "matrix": [
        1,
        0,
        0,
        0,
        0,
        -1.6292067939183141e-7,
        0.9999999999999868,
        0,
        0,
        -0.9999999999999868,
        -1.6292067939183141e-7,
        0,
        0.5885316133499146,
        -0.000328205234836787,
        -0.17682301998138428,
        1
      ],
      "name": "trigger"
    },
    {
      "mesh": 10,
      "name": "trigger_weapon.001_0"
    }
  ],
  "scene": 0,
  "scenes": [
    {
      "name": "Sketchfab_Scene",
      "nodes": [
        0
      ]
    }
  ]
}
