<svg xmlns="http://www.w3.org/2000/svg" viewBox="0 0 1600 900" role="img" aria-label="Daytime island drop backdrop">
  <defs>
    <linearGradient id="sky" x1="0" x2="0" y1="0" y2="1">
      <stop offset="0" stop-color="#8ec5e8"/>
      <stop offset="0.52" stop-color="#cfe0dc"/>
      <stop offset="1" stop-color="#6f8b8a"/>
    </linearGradient>
    <linearGradient id="water" x1="0" x2="1">
      <stop offset="0" stop-color="#385b68"/>
      <stop offset="0.54" stop-color="#7895a0"/>
      <stop offset="1" stop-color="#2d4956"/>
    </linearGradient>
    <filter id="soften" x="-20%" y="-20%" width="140%" height="140%">
      <feGaussianBlur stdDeviation="7"/>
    </filter>
  </defs>
  <rect width="1600" height="900" fill="url(#sky)"/>
  <path d="M0 448 C240 412 392 424 568 450 C806 486 1034 446 1210 420 C1374 396 1504 404 1600 430 L1600 900 L0 900 Z" fill="url(#water)" opacity=".92"/>
  <g filter="url(#soften)" opacity=".82">
    <path d="M255 470 C358 430 484 426 618 453 C732 476 863 472 980 446 C1108 416 1238 418 1344 464 C1156 500 980 522 762 512 C568 503 424 494 255 470 Z" fill="#2b3b32"/>
    <path d="M470 386 H566 V462 H470 Z" fill="#d9c9a3"/>
    <path d="M590 354 H682 V466 H590 Z" fill="#e3d7b7"/>
    <path d="M704 398 H820 V468 H704 Z" fill="#c8b487"/>
    <path d="M846 364 H940 V466 H846 Z" fill="#eadab4"/>
    <path d="M980 408 H1110 V466 H980 Z" fill="#c5b489"/>
    <path d="M610 318 H680 V356 H610 Z" fill="#b99d77"/>
    <path d="M868 310 H930 V365 H868 Z" fill="#bfa77f"/>
    <path d="M1024 354 H1088 V408 H1024 Z" fill="#d9c7a4"/>
    <path d="M416 462 H1192" stroke="#0c1715" stroke-width="18" opacity=".35"/>
    <g fill="#182522" opacity=".55">
      <rect x="518" y="418" width="18" height="36"/>
      <rect x="626" y="390" width="20" height="46"/>
      <rect x="728" y="428" width="22" height="34"/>
      <rect x="886" y="392" width="20" height="48"/>
      <rect x="1034" y="430" width="22" height="32"/>
    </g>
  </g>
  <path d="M0 0 H1600 V900 H0 Z" fill="#060809" opacity=".08"/>
</svg>
